<?xml version="1.0" encoding="UTF-8" standalone="no"?>
<svg
   width="50"
   height="50"
   viewBox="0 0 50 50"
   fill="none"
   version="1.1"
   id="svg1"
   sodipodi:docname="Octicons-mark-github.svg"
   inkscape:version="1.4 (e7c3feb100, 2024-10-09)"
   xmlns:inkscape="http://www.inkscape.org/namespaces/inkscape"
   xmlns:sodipodi="http://sodipodi.sourceforge.net/DTD/sodipodi-0.dtd"
   xmlns="http://www.w3.org/2000/svg"
   xmlns:svg="http://www.w3.org/2000/svg">
  <defs
     id="defs1" />
  <sodipodi:namedview
     id="namedview1"
     pagecolor="#ffffff"
     bordercolor="#999999"
     borderopacity="1"
     inkscape:showpageshadow="2"
     inkscape:pageopacity="0"
     inkscape:pagecheckerboard="0"
     inkscape:deskcolor="#d1d1d1"
     inkscape:zoom="4.3807475"
     inkscape:cx="22.14234"
     inkscape:cy="-1.7120366"
     inkscape:window-width="1920"
     inkscape:window-height="1011"
     inkscape:window-x="0"
     inkscape:window-y="0"
     inkscape:window-maximized="1"
     inkscape:current-layer="svg1" />
  <path
     fill-rule="evenodd"
     clip-rule="evenodd"
     d="m 25,0.1 c -13.8125,0 -25,11.1875 -25,25 0,11.0625 7.15625,20.40625 17.09375,23.71875 1.25,0.21875 1.71875,-0.53125 1.71875,-1.1875 0,-0.59375 -0.03125,-2.5625 -0.03125,-4.65625 C 12.5,44.13125 10.875,41.44375 10.375,40.0375 10.09375,39.31875 8.875,37.1 7.8125,36.50625 6.9375,36.0375 5.6875,34.88125 7.78125,34.85 c 1.96875,-0.03125 3.375,1.8125 3.84375,2.5625 2.25,3.78125 5.84375,2.71875 7.28125,2.0625 C 19.125,37.85 19.78125,36.75625 20.5,36.13125 14.9375,35.50625 9.125,33.35 9.125,23.7875 c 0,-2.71875 0.96875,-4.96875 2.5625,-6.71875 -0.25,-0.625 -1.125,-3.1875 0.25,-6.625 0,0 2.09375,-0.65625 6.875,2.5625 2,-0.5625 4.125,-0.84375 6.25,-0.84375 2.125,0 4.25,0.28125 6.25,0.84375 4.78125,-3.25 6.875,-2.5625 6.875,-2.5625 1.375,3.4375 0.5,6 0.25,6.625 1.59375,1.75 2.5625,3.96875 2.5625,6.71875 0,9.59375 -5.84375,11.71875 -11.40625,12.34375 0.90625,0.78125 1.6875,2.28125 1.6875,4.625 0,3.34375 -0.03125,6.03125 -0.03125,6.875 0,0.65625 0.46875,1.4375 1.71875,1.1875 C 42.84375,45.50625 50,36.13125 50,25.1 50,11.2875 38.8125,0.1 25,0.1 Z"
     fill="#1b1f23"
     id="path1"
     style="stroke-width:3.125;fill:#cea5fb;fill-opacity:1" />
</svg>
