<?xml version="1.0" encoding="UTF-8" standalone="no"?>
<!-- Created with Inkscape (http://www.inkscape.org/) -->

<svg
   width="50"
   height="50"
   viewBox="0 0 13.229166 13.229167"
   version="1.1"
   id="svg1"
   xml:space="preserve"
   xmlns="http://www.w3.org/2000/svg"
   xmlns:svg="http://www.w3.org/2000/svg"><defs
     id="defs1" /><g
     id="layer1"><g
       id="g2"
       transform="matrix(0.31490346,0,0,0.31490346,-103.91815,-27.111739)"
       style="fill:#458dff;fill-opacity:1;stroke-width:0.840205"><path
         id="circle2"
         style="clip-rule:evenodd;fill-rule:evenodd;stroke-width:0.840204"
         d="m 372.01024,107.10052 a 21.005116,21.005116 0 0 1 -21.00511,21.00511 21.005116,21.005116 0 0 1 -21.00512,-21.00511 21.005116,21.005116 0 0 1 21.00512,-21.005118 21.005116,21.005116 0 0 1 21.00511,21.005118 z" /><path
         fill-rule="evenodd"
         clip-rule="evenodd"
         fill="#ffffff"
         d="m 339.49691,106.87316 c 6.12139,-2.65844 10.19649,-4.4249 12.24278,-5.28189 5.82407,-2.431066 7.04835,-2.850819 7.83538,-2.868309 0.1749,0 0.55967,0.03498 0.82202,0.244856 0.20988,0.174897 0.26235,0.402263 0.29732,0.57716 0.035,0.174897 0.07,0.542183 0.035,0.822013 -0.31481,3.32304 -1.67901,11.38579 -2.37859,15.0936 -0.29733,1.57407 -0.87449,2.09877 -1.43416,2.15123 -1.22428,0.10494 -2.15123,-0.80452 -3.32304,-1.57407 -1.85391,-1.20679 -2.8858,-1.95884 -4.68724,-3.14814 -2.08127,-1.3642 -0.73456,-2.11625 0.45474,-3.34053 0.31481,-0.31482 5.68415,-5.21193 5.78908,-5.64917 0.0175,-0.0525 0.0175,-0.26235 -0.10493,-0.36728 -0.12243,-0.10494 -0.29733,-0.07 -0.43725,-0.035 -0.19238,0.035 -3.13065,1.99382 -8.84978,5.85904 -0.8395,0.57716 -1.59156,0.857 -2.27366,0.83951 -0.75205,-0.0175 -2.18621,-0.41976 -3.27057,-0.76955 -1.31173,-0.41975 -2.36111,-0.64712 -2.27366,-1.38168 0.0525,-0.38478 0.57716,-0.76955 1.55658,-1.17181 z"
         id="path2"
         style="fill:#ffffff;fill-opacity:1;stroke-width:0.840204" /></g></g></svg>
